# xmcd
#
# Track frame offsets:
#	150
#	15075
#	27156
#	41488
#	58597
#	75128
#	88534
#	108988
#	124399
#	141098
#	155649
#	168971
#	186897
#	206023
#	220644
#
# Disc length: 3108 seconds
#
# Revision: 1
# Processed by: cddbd v1.5.1PL0 Copyright (c) Steve Scherf et al.
# Submitted via: audiograbber 1.83.01
#
DISCID=b80c220f
DTITLE=v - CB60009
DYEAR=1900
DGENRE=Karaoke Country
TTITLE0=Tim McGraw - I Like It, I Love It
TTITLE1=Alan Jackson - Chattahoochee
TTITLE2=Kathy Mattea - Eighteen Wheels and A Dozen Roses
TTITLE3=Keith Whitley - Don't Close Your Eyes
TTITLE4=Little Texas - God Blessed Texas
TTITLE5=Lorrie Morgan - What Part Of No
TTITLE6=John Michael Montgomery - I Swear
TTITLE7=Alan Jackson - Summertime Blues
TTITLE8=Mary Chapin Carpenter - I Feel Lucky
TTITLE9=Tracy Byrd - Watermelon Crawl
TTITLE10=Tim McGraw - Refried Dreams
TTITLE11=Wynonna Judd - I Saw The Light
TTITLE12=Tracy Byrd - Keeper Of The Stars, The
TTITLE13=Travis Tritt - Country Club
TTITLE14=Trisha Yearwood - That's What I Like About You
EXTD=Chartbuster
EXTT0=
EXTT1=
EXTT2=
EXTT3=
EXTT4=
EXTT5=
EXTT6=
EXTT7=
EXTT8=
EXTT9=
EXTT10=
EXTT11=
EXTT12=
EXTT13=
EXTT14=
PLAYORDER=
